<svg width="240" height="240" viewBox="0 0 240 240" fill="none" xmlns="http://www.w3.org/2000/svg">
<path d="M186.706 123.226C190.63 122.707 191.741 127.274 193.013 130.096L196.812 138.337L200.983 147.51C201.832 149.37 202.355 150.152 203.115 152.207C196.227 153.186 189.068 153.489 182.432 150.897C176.018 148.776 169.037 143.238 165.444 137.334C164.866 136.386 163.436 134.692 163.603 133.61C164.466 132.908 166.768 132.028 167.895 131.509L176.984 127.376C179.218 126.376 184.689 123.48 186.706 123.226Z" fill="#312F77"/>
<path d="M113.821 94.1305C116.235 94.0158 119.099 94.1396 121.609 94.0711C121.776 100.711 121.491 107.428 121.623 114.094C121.811 117.027 121.168 120.725 121.998 123.493C122.675 125.751 126.767 125.154 128.589 125.166C130.455 125.179 134.368 125.628 135.257 123.575C136.288 121.194 134.953 114.574 135.744 112.506C136.015 112.283 142.764 112.232 143.21 112.454C143.484 113.446 143.38 119.082 143.377 120.452C143.412 124.542 143.415 128.288 139.797 131.112C135.711 134.302 128.201 133.237 123.349 133.258C118.649 133.278 115.051 130.262 114.059 125.807C113.612 123.801 113.765 120.672 113.768 118.516L113.777 109.049L113.77 99.5071C113.767 97.9158 113.689 95.6396 113.821 94.1305Z" fill="#312F77"/>
<path d="M144.907 98.975C145.001 98.9685 145.004 98.9989 145.102 99.0687C145.145 101.351 145.113 103.731 145.115 106.02C139.529 106.151 133.656 106.056 128.046 106.062L127.834 106.021C127.606 105.422 127.808 100.199 127.721 98.996C133.394 98.9117 139.223 98.9755 144.907 98.975Z" fill="#312F77"/>
<path d="M75.0872 139.574C75.4811 139.531 75.5994 139.506 75.9799 139.599C76.2564 140.086 76.1207 145.786 76.0955 146.694C74.6341 146.541 71.8416 146.613 70.2952 146.613L59.8546 146.62C59.5263 146.627 59.2187 146.67 58.944 146.493C58.8462 146.241 58.8901 140.5 58.8742 139.657C60.5688 139.536 62.7719 139.594 64.508 139.595C68.0344 139.613 71.5609 139.606 75.0872 139.574Z" fill="#312F77"/>
<path d="M85.3104 139.566C88.8953 139.68 92.6208 139.543 96.2125 139.592C97.4709 139.609 100.345 139.484 101.423 139.704C101.679 140.212 101.661 145.73 101.572 146.454C101.328 146.706 101.43 146.636 101.035 146.678C99.5586 146.534 96.7208 146.612 95.1262 146.611L84.5765 146.633C84.5121 145.756 84.4228 140.432 84.6044 139.738C84.8835 139.521 84.9062 139.587 85.3104 139.566Z" fill="#312F77"/>
<path d="M22.4958 104.524C25.3306 104.458 28.2906 104.5 31.1345 104.501C31.0723 106.74 31.1092 109.351 31.1326 111.597C30.456 111.536 28.9169 111.582 28.1681 111.583C26.2663 111.581 24.3645 111.591 22.4629 111.613C22.3515 110.417 22.4331 105.79 22.4958 104.524Z" fill="#312F77"/>
<path d="M89.4634 149.422L96.5317 149.405C96.5511 151.592 96.5546 153.779 96.5421 155.965C94.4091 155.856 91.6311 155.933 89.442 155.927C89.4668 153.759 89.4739 151.59 89.4634 149.422Z" fill="#312F77"/>
<path d="M189.918 82.8H198.341C198.681 83.3021 200.53 83.3728 201.177 83.4724C202.654 83.706 204.11 84.0538 205.533 84.5124C208.876 85.6173 213.722 88.2906 216.558 90.4185C217.649 91.2378 218.623 92.3429 219.598 93.2449C221.314 94.8306 222.28 95.4633 223.374 97.6422C222.33 98.2655 220.591 98.8273 219.441 99.3369C218.123 99.9203 216.831 100.539 215.5 101.09C213.934 101.738 212.35 102.362 210.787 103.015C210.363 103.192 209.91 103.648 209.463 103.845L172.585 119.636C168.921 121.243 165.014 122.659 161.371 124.364C161.025 124.526 161.008 124.509 160.676 124.4C159.872 123.554 159.996 119.129 159.963 117.849C159.737 109.192 162.422 102.113 167.787 95.4845C171.779 90.4675 177.096 86.668 183.135 84.516C185.172 83.7776 187.246 83.4783 189.37 83.154C189.592 83.12 189.77 82.9614 189.918 82.8Z" fill="#FEBD2E"/>
<path d="M74.7901 112.349C75.9096 112.344 81.5662 112.253 82.2989 112.424C82.652 112.778 82.5818 113.449 82.5813 113.945L82.5517 119.352C82.5267 125.036 83.1234 125.382 89.0656 125.184C91.7815 125.094 97.1882 126.091 97.359 122.256C97.5054 118.967 97.3064 115.628 97.4295 112.349C98.5424 112.344 104.374 112.2 105.074 112.43C105.5 113.297 105.189 122.007 105.181 123.628C105.158 128.391 101.291 132.834 96.3964 133.094C91.4364 133.358 86.1527 133.841 81.2985 132.652C80.0852 132.339 79.3297 131.381 78.5512 130.869C76.5103 132.34 75.7839 133.03 73.078 133.174C65.3656 133.585 57.5525 133.314 49.825 133.313C48.914 133.312 46.9258 132.921 46.1057 132.6C45.6078 137.59 44.6879 140.578 40.6854 143.974C35.9214 148.016 30.2843 148.107 24.358 147.743C20.0799 147.481 16.5339 145.847 13.7585 142.61C12.7967 141.523 11.858 139.783 11.3542 138.448C11.0453 137.629 10.6191 135.155 10.2 134.592V118.342C12.3478 118.343 15.9686 118.451 18.0055 118.269L18.0085 126.203C18.0065 128.532 17.8545 132.082 18.4523 134.243C18.8417 135.6 19.5794 136.831 20.592 137.814C22.71 139.895 26.2845 139.646 29.0437 139.668C33.3302 139.711 37.1558 137.703 38.0058 133.222C38.4447 130.909 38.2125 128.599 38.2614 126.262C38.3581 121.653 38.1144 116.936 38.2817 112.338L46.0914 112.335C46.2162 114.389 46.1693 117.301 46.1133 119.355C45.9519 125.289 47.0468 125.177 52.4419 125.181L66.0177 125.178C67.6979 125.177 69.3515 125.195 71.0206 125.114C72.8858 125.023 74.3858 124.524 74.6943 122.451C74.8688 121.279 74.7969 119.978 74.7939 118.787C74.7806 116.641 74.7793 114.495 74.7901 112.349Z" fill="#312F77"/>
<path d="M215.283 146.699C214.223 144.009 213.184 142.22 212.064 139.783L204.475 123.356C203.585 121.429 202.256 118.972 203.047 116.87C203.314 116.166 203.79 115.562 204.411 115.138C206.2 113.915 209.55 112.655 211.645 111.679L226.968 104.56C228.568 106.651 229.181 110.648 229.603 113.196C229.734 113.983 229.688 115.758 230.159 116.243V120.44C229.625 120.944 229.627 123.88 229.469 124.735C227.956 132.916 222.48 142.213 215.283 146.699Z" fill="#312F77"/>
</svg>
